<?xml version="1.0" ?><svg id="icons" viewBox="0 0 192 192" xmlns="http://www.w3.org/2000/svg"><defs><style>
      .cls-1 {
        fill: #dededd;
      }

      .cls-2 {
        fill: #fff;
      }

      .cls-3 {
        fill: #ffd15d;
      }

      .cls-4 {
        fill: none;
        stroke: #475059;
        stroke-miterlimit: 10;
        stroke-width: 2px;
      }

      .cls-5 {
        fill: #f58e70;
      }

      .cls-6 {
        fill: #5fe0ed;
      }

      .cls-7 {
        fill: #475059;
      }
    </style></defs><title/><path class="cls-1" d="M53.38411,44.0485l31.99284,73.748,4.03076-9.26642L49.86214,18.19456A48.23447,48.23447,0,0,0,53.38411,44.0485Z"/><g><path class="cls-1" d="M95.80249,101.26651l6.24-14.25866L66.042,5.00766H62.95776l-.08422.20252a51.01334,51.01334,0,0,0-3.49268,13.09668Z"/><path class="cls-1" d="M140.76685,45.2482,124.72534,83.20035l-18.19043,42.48322,6.45581,15.274h.05762c2.0271,4.33948,2.58667,5.54,3.761,8.05h12.084l-9.8584-23.32409,18.19043-42.48322L153.26685,45.2482a51.05179,51.05179,0,0,0,.32983-40.038l-.08423-.20252h-3.08423l-5.83471,13.33277A51.02328,51.02328,0,0,1,140.76685,45.2482Z"/><path class="cls-1" d="M100.54834,140.95761c-6.644.00019-4.30762.00013-8.95.00013L73.59692,179.40122a21.00243,21.00243,0,0,1-12.53833,10.64673,21.01178,21.01178,0,0,0,25.03833-10.64673l16.22412-34.648C101.86377,143.77365,101.30957,142.58707,100.54834,140.95761Z"/><path class="cls-1" d="M164.67822,155.15842a20.93352,20.93352,0,0,0-14.84887-6.15076h-12.5a20.99379,20.99379,0,0,1,6.24975,41.04029,20.99454,20.99454,0,0,0,21.09912-34.88953Z"/></g><g><path class="cls-2" d="M46,108.00772a20,20,0,1,1-20-20"/><g><circle class="cls-3" cx="26" cy="108.00772" r="17"/><g><polyline class="cls-4" points="31.984 101.939 32 99.008 20 99.008 20 107.939 32 107.939 32 116.939 20 116.939 20 113.939"/><line class="cls-4" x1="28.00002" x2="28.00002" y1="96.00772" y2="120.00772"/><line class="cls-4" x1="24.00002" x2="24.00002" y1="96.00772" y2="120.00772"/><line class="cls-4" x1="17.00002" x2="15.00002" y1="108.00772" y2="108.00772"/><line class="cls-4" x1="13.00002" x2="11.00002" y1="108.00772" y2="108.00772"/><line class="cls-4" x1="41.00002" x2="39.00002" y1="108.00772" y2="108.00772"/><line class="cls-4" x1="37.00002" x2="35.00002" y1="108.00772" y2="108.00772"/></g><path class="cls-4" d="M41.77137,95.70733a19.98564,19.98564,0,1,1-4.67257-4.34"/></g></g><g><path class="cls-2" d="M138,121.1895a20,20,0,1,1,20,20"/><g><path class="cls-4" d="M142.429,133.7422a19.97915,19.97915,0,1,1,4.88952,4.35908"/><g><circle class="cls-3" cx="158" cy="121.38502" r="17"/><g><circle class="cls-4" cx="152.79526" cy="116.38451" r="2.99981"/><line class="cls-4" x1="149.79577" x2="165.79577" y1="129.38502" y2="113.38502"/><circle class="cls-4" cx="162.79577" cy="126.38502" r="2.99981"/></g></g></g></g><g><g><line class="cls-4" x1="171.04961" x2="171.04961" y1="61.02175" y2="65.02175"/><line class="cls-4" x1="171.04961" x2="171.04961" y1="71.02175" y2="75.02175"/></g><g><line class="cls-4" x1="178.04961" x2="174.04961" y1="68.02175" y2="68.02175"/><line class="cls-4" x1="168.04961" x2="164.04961" y1="68.02175" y2="68.02175"/></g></g><g><g><line class="cls-4" x1="54.93305" x2="54.93305" y1="126.80261" y2="130.80261"/><line class="cls-4" x1="54.93305" x2="54.93305" y1="136.80261" y2="140.80261"/></g><g><line class="cls-4" x1="61.93305" x2="57.93305" y1="133.80261" y2="133.80261"/><line class="cls-4" x1="51.93305" x2="47.93305" y1="133.80261" y2="133.80261"/></g></g><g><g><line class="cls-4" x1="25" x2="25" y1="46.00772" y2="50.00772"/><line class="cls-4" x1="25" x2="25" y1="56.00772" y2="60.00772"/></g><g><line class="cls-4" x1="32" x2="28" y1="53.00772" y2="53.00772"/><line class="cls-4" x1="22" x2="18" y1="53.00772" y2="53.00772"/></g></g><circle class="cls-5" cx="171.94742" cy="147.36463" r="2"/><g><path class="cls-6" d="M144.47569,36.57651a55.94222,55.94222,0,0,0,1.26123-10.56879h7.04579v54h-26.1756Z"/><polygon class="cls-6" points="128.431 26.008 105.045 80.008 39 80.008 39 26.008 128.431 26.008"/></g><g><g><polyline class="cls-4" points="132.767 83.008 155.783 83.008 155.783 23.008 145.658 23.008"/><polyline class="cls-4" points="80 23.008 36 23.008 36 83.008 103.468 83.008"/><line class="cls-4" x1="129.01544" x2="94" y1="23.00772" y2="23.00772"/><circle class="cls-2" cx="97.30433" cy="53.00772" r="22.17391"/><g><path class="cls-4" d="M144.3443,36.22617a14.56043,14.56043,0,0,0,8.43831,2.825"/><path class="cls-4" d="M139.73913,80.00772a13.04347,13.04347,0,0,1,13.04348-13.04347"/></g><g><path class="cls-4" d="M52.04348,26.00772A13.04348,13.04348,0,0,1,39,39.0512"/><path class="cls-4" d="M52.04348,80.00772A13.04348,13.04348,0,0,0,39,66.96425"/></g></g><g><polyline class="cls-4" points="103.766 46.939 103.783 44.008 91.783 44.008 91.783 52.939 103.783 52.939 103.783 61.939 91.783 61.939 91.783 58.939"/><line class="cls-4" x1="99.78258" x2="99.78258" y1="41.00772" y2="65.00772"/><line class="cls-4" x1="95.78258" x2="95.78258" y1="41.00772" y2="65.00772"/><line class="cls-4" x1="63.78261" x2="65.78261" y1="53.00772" y2="53.00772"/><line class="cls-4" x1="67.78261" x2="69.78261" y1="53.00772" y2="53.00772"/></g></g><g><path class="cls-1" d="M141.63818,17.9329a47.8876,47.8876,0,0,0-2.33081-9.40345L79.64893,146.00772h6.20361l1.84033-3.93017Z"/><g><polygon class="cls-1" points="101.907 136.679 106.136 146.008 111.813 146.008 104.808 129.897 101.907 136.679"/><polyline class="cls-4" points="92.053 140.958 100.48 140.958 104.24 149.008"/><line class="cls-4" x1="75.88878" x2="85.56676" y1="103.51577" y2="125.84508"/><line class="cls-4" x1="67.02365" x2="72.30117" y1="83.06187" y2="95.23833"/><path class="cls-4" d="M61.56208,23.49109,53.47321,5.00772l-3.08418,0-.08436.2025A51.04675,51.04675,0,0,0,46.411,23.03512"/><line class="cls-4" x1="95.94573" x2="87.67011" y1="102.05907" y2="83.14896"/><line class="cls-4" x1="116.15204" x2="109.32627" y1="148.42082" y2="132.75964"/><circle class="cls-4" cx="94.85079" cy="128.05263" r="3" transform="translate(-63.61382 144.87866) rotate(-59.53306)"/><circle class="cls-4" cx="54.73975" cy="170.00772" r="12"/><path class="cls-4" d="M119.17273,96.00772,144.3291,36.25485c4.33576-12.48173-.04341-23.72464-3.09287-31.04462l-.08436-.20251-3.58418,0L75.32745,148.42123"/><path class="cls-4" d="M87.71757,149.00772h-32.978a20.992,20.992,0,1,0,18.78855,30.3935l18.0016-38.44343,8.39647-.00008,17.23306-40.13313"/><circle class="cls-4" cx="137.26025" cy="170.00772" r="12"/><path class="cls-4" d="M158.06832,172.84877a21.009,21.009,0,0,1-39.5964,6.55251l-14.23217-30.39356H137.2605a21.00554,21.00554,0,0,1,20.61532,16.98913"/><circle class="cls-7" cx="108.22153" cy="130.46029" r="1"/><circle class="cls-7" cx="158.02044" cy="169.27699" r="1"/><circle class="cls-7" cx="118" cy="98.50772" r="1"/><circle class="cls-7" cx="73.27609" cy="97.40852" r="1"/><circle class="cls-7" cx="74.85273" cy="101.08735" r="1"/><circle class="cls-7" cx="130.27074" cy="83.02847" r="1"/><path class="cls-3" d="M137.26025,152.00772H108.957l12.23145,26.12134a18.00306,18.00306,0,1,0,16.07177-26.12134Zm0,33a15,15,0,1,1,15-15A15.017,15.017,0,0,1,137.26025,185.00772Z"/><path class="cls-3" d="M36.73975,170.00772a18.005,18.005,0,0,0,34.07177,8.12134L83.043,152.00772H54.73975A17.99016,17.99016,0,0,0,36.73975,170.00772Zm3,0a15,15,0,1,1,15,15A15.017,15.017,0,0,1,39.73975,170.00772Z"/></g></g><circle class="cls-7" cx="91" cy="23.00772" r="1"/><circle class="cls-7" cx="83" cy="23.00772" r="1"/><circle class="cls-7" cx="144.65949" cy="135.97852" r="1"/><circle class="cls-7" cx="39.50973" cy="93.20415" r="1"/></svg>