<?xml version="1.0" ?><svg id="Layer_1" style="enable-background:new 0 0 192 151.9;" version="1.1" viewBox="0 0 192 151.9" xml:space="preserve" xmlns="http://www.w3.org/2000/svg" xmlns:xlink="http://www.w3.org/1999/xlink"><style type="text/css">
	.st0{fill:#F58E70;}
	.st1{fill:#5FE0ED;}
	.st2{fill:#48515A;}
	.st3{fill:#DEDEDD;}
	.st4{fill:#FFD15D;}
</style><title/><desc/><g id="Layer_4"><g><path class="st0" d="M28,100.6v-17c0-1.1-0.9-2-2-2h-4v19H28z"/><polygon class="st1" points="150.8,39.6 146,39.6 146,71.6 153.2,71.6   "/><rect class="st2" height="2" width="192" x="0" y="123.6"/><path class="st2" d="M174.4,100.7h-2v-7.9c0-9.3-7.6-17.2-16.7-17.2h-3.1l-3.9-44.1c-0.3-3.4-3.2-5.9-6.5-5.9l-118,0    c-2.2,0-4.1,1.8-4.1,4.1v71h-2v-71c0-3.3,2.7-6,6.1-6.1l118,0c4.4,0,8.1,3.3,8.5,7.7l3.8,42.3h1.3c10.1,0,18.7,8.8,18.7,19.2    V100.7z"/><path class="st2" d="M149.9,121.6c-7.7-0.1-14-6.4-13.9-14.1c0.1-7.7,6.4-14,14.1-13.9c7.7,0.1,13.9,6.3,13.9,14    C164,115.4,157.7,121.6,149.9,121.6z M149.9,95.6c-6.6,0.1-12,5.5-11.9,12.1c0.1,6.6,5.5,12,12.1,11.9c6.6-0.1,11.9-5.4,11.9-12    C162,101,156.6,95.6,149.9,95.6z"/><ellipse class="st3" cx="150.1" cy="107.6" rx="8.1" ry="8"/><path class="st2" d="M172.2,89.4h-2.5c-5.4,0-9.8-4.4-9.8-9.8v-4.1h2v4.1c0,4.3,3.5,7.8,7.8,7.8h2.5V89.4z"/><path class="st2" d="M34,100.8h-2V35.3c0-0.8-0.7-1.5-1.5-1.5H18.7v-2h11.8c1.9,0,3.5,1.6,3.5,3.5L34,100.8z"/><polygon class="st4" points="102.8,60.6 81.3,39.2 81.3,46.7 38.3,46.7 38.3,74.5 81.3,74.5 81.3,82   "/><rect class="st2" height="74.5" width="2" x="106.8" y="29"/><path class="st2" d="M53.9,121.6c-7.7-0.1-14-6.4-13.9-14.1c0.1-7.7,6.4-14,14.1-13.9c7.7,0.1,13.9,6.3,13.9,14    C68,115.4,61.7,121.6,53.9,121.6z M53.9,95.6c-6.6,0.1-12,5.5-11.9,12.1s5.5,12,12.1,11.9c6.6-0.1,11.9-5.4,11.9-12    C66,101,60.6,95.6,53.9,95.6z"/><ellipse class="st3" cx="54.1" cy="107.6" rx="8.1" ry="8"/><path class="st2" d="M135,75.6h-20c-1.7,0-3-1.3-3-3v-34c0-1.7,1.3-3,3-3h20c1.7,0,3,1.3,3,3v34C138,74.3,136.7,75.6,135,75.6z     M115,37.6c-0.6,0-1,0.4-1,1v34c0,0.6,0.4,1,1,1h20c0.6,0,1-0.4,1-1v-34c0-0.6-0.4-1-1-1H115z"/><rect class="st1" height="32" width="18" x="116" y="39.6"/><path class="st2" d="M154,75.6h-9c-1.7,0-3-1.3-3-3v-34c0-1.7,1.3-3,3-3h5v2h-5c-0.6,0-1,0.4-1,1v34c0,0.6,0.4,1,1,1h9V75.6z"/><g><g><rect class="st2" height="4" width="2" x="6" y="1.6"/><rect class="st2" height="4" width="2" x="6" y="11.6"/></g><g><rect class="st2" height="2" width="4" x="10" y="7.6"/><rect class="st2" height="2" width="4" y="7.6"/></g></g><g><g><rect class="st2" height="4" width="2" x="184" y="39.6"/><rect class="st2" height="4" width="2" x="184" y="49.6"/></g><g><rect class="st2" height="2" width="4" x="188" y="45.6"/><rect class="st2" height="2" width="4" x="178" y="45.6"/></g></g><path class="st3" d="M0,127.5v24.2l192,0.2v-24.2L0,127.5z M36,137.8H5.8v-2H36L36,137.8z M86,137.8H55.9v-2H86L86,137.8z     M136.1,137.8h-30.2v-2h30.2L136.1,137.8z M186.1,137.8h-30.2v-2h30.2L186.1,137.8z"/><circle class="st4" cx="162" cy="46.6" r="2"/><circle class="st4" cx="7" cy="98.6" r="3"/><circle class="st4" cx="83" cy="8.6" r="3"/><path class="st2" d="M133.8,116.6H70l0-9c-0.1-8.9-7.3-16.1-16.2-16c-8.8,0.1-15.9,7.2-16,16h-2c0.1-10,8.2-18.1,18.2-18    c9.9,0.1,17.9,8.1,18,18l0,7h59.8v-7c0.1-10,8.2-18.1,18.2-18c6.9,0,13.1,4,16.1,10.1h7.3c1.9,0,3.5,1.6,3.5,3.5v8.8    c0,1.9-1.6,3.5-3.5,3.5H166l0-8c-0.1-8.9-7.3-16.1-16.2-16c-8.8,0.1-15.9,7.2-16,16V116.6z M168,113.6h5.5c0.8,0,1.5-0.7,1.5-1.5    v-8.8c0-0.8-0.7-1.5-1.5-1.5H167c0.7,1.9,1,3.9,1,5.9L168,113.6z"/><path class="st2" d="M37.8,115.6H20c-2.2,0-4-1.8-4-4v-12h21.8V115.6z M18,101.6v10c0,1.1,0.9,2,2,2h15.8v-12H18z"/><path class="st2" d="M163.9,33.9L149.9,0l32.1,13.7l-8.8,5.3l8,8l-4.2,4.2l-7.8-7.8L163.9,33.9z M153.6,3.8L164,29.1l4.5-9    l8.4,8.4l1.4-1.4l-8.4-8.4l7.7-4.6L153.6,3.8z"/></g></g></svg>