<?xml version="1.0" ?><svg id="icons" viewBox="0 0 192 192" xmlns="http://www.w3.org/2000/svg"><defs><style>
      .cls-1 {
        fill: #dededd;
      }

      .cls-2 {
        fill: #ffd15d;
      }

      .cls-11, .cls-12, .cls-3, .cls-4, .cls-6, .cls-7, .cls-8, .cls-9 {
        fill: none;
      }

      .cls-12, .cls-3, .cls-6, .cls-7, .cls-8, .cls-9 {
        stroke: #475059;
      }

      .cls-11, .cls-3, .cls-4, .cls-6, .cls-9 {
        stroke-miterlimit: 10;
      }

      .cls-12, .cls-3, .cls-4, .cls-6, .cls-7, .cls-8, .cls-9 {
        stroke-width: 2px;
      }

      .cls-11, .cls-4 {
        stroke: #dededd;
      }

      .cls-5 {
        fill: #f58e70;
      }

      .cls-6, .cls-7, .cls-8, .cls-9 {
        stroke-linecap: round;
      }

      .cls-7, .cls-8 {
        stroke-linejoin: round;
      }

      .cls-8 {
        stroke-dasharray: 0 3.94069;
      }

      .cls-9 {
        stroke-dasharray: 0 4;
      }

      .cls-10 {
        fill: #fff;
      }

      .cls-11 {
        stroke-width: 3px;
      }
    </style></defs><title/><path class="cls-1" d="M96,187A88.99492,88.99492,0,0,1,29.66821,38.66819,88.99566,88.99566,0,1,0,155.33179,164.33176,88.6632,88.6632,0,0,1,96,187Z"/><polygon class="cls-1" points="48.641 26.648 46.682 21.138 40.529 21.138 38.57 26.648 34.092 28.503 28.81 25.992 24.46 30.343 26.97 35.624 25.115 40.103 19.606 42.062 19.606 48.215 25.115 50.174 26.97 54.652 24.46 59.933 28.81 64.284 34.092 61.774 38.57 63.628 40.529 69.138 46.682 69.138 48.641 63.628 53.119 61.774 58.401 64.284 62.751 59.933 60.241 54.652 62.096 50.174 67.606 48.215 67.606 42.062 62.096 40.103 60.241 35.624 62.751 30.343 58.401 25.992 53.119 28.503 48.641 26.648"/><circle class="cls-2" cx="96" cy="97.49613" r="40"/><path class="cls-1" d="M96.66055,35.17358a80.00042,80.00042,0,0,1,79.48218,70.99609A79.99551,79.99551,0,1,0,16.66055,97.16583a80.73421,80.73421,0,0,0,.51782,9.00384A80.00042,80.00042,0,0,1,96.66055,35.17358Z"/><path class="cls-3" d="M184.3563,108.25516A89.01522,89.01522,0,0,1,96,186.49613q-3.7191,0-7.36323-.30024"/><path class="cls-3" d="M173.36221,53.46411a88.4143,88.4143,0,0,1,10.95038,32.91633"/><path class="cls-3" d="M62.13583,179.827A89.01795,89.01795,0,1,1,139.00267,19.55582"/><circle class="cls-4" cx="96" cy="97.49613" r="80"/><line class="cls-3" x1="96" x2="96" y1="21.50385" y2="31.50385"/><line class="cls-3" x1="30" x2="20" y1="97.50383" y2="97.50383"/><line class="cls-3" x1="58" x2="63" y1="31.68593" y2="40.34618"/><line class="cls-3" x1="129" x2="134" y1="154.66154" y2="163.32179"/><line class="cls-3" x1="161.81795" x2="153.1577" y1="59.50385" y2="64.50385"/><line class="cls-3" x1="38.84232" x2="30.18206" y1="130.50384" y2="135.50384"/><line class="cls-3" x1="30.18208" x2="38.84233" y1="59.50386" y2="64.50386"/><line class="cls-3" x1="153.15768" x2="161.81794" y1="130.50386" y2="135.50386"/><line class="cls-3" x1="62.99999" x2="57.99999" y1="154.66153" y2="163.32178"/><line class="cls-3" x1="92.02247" x2="92.12714" y1="21.60801" y2="23.60527"/><line class="cls-3" x1="88.05584" x2="88.26489" y1="21.92019" y2="23.90923"/><line class="cls-3" x1="103.73511" x2="103.94416" y1="171.09847" y2="173.08752"/><line class="cls-3" x1="84.11098" x2="84.42385" y1="22.43954" y2="24.41492"/><line class="cls-3" x1="107.57615" x2="107.88902" y1="170.59279" y2="172.56817"/><line class="cls-3" x1="80.19871" x2="80.61453" y1="23.16464" y2="25.12093"/><line class="cls-3" x1="111.38546" x2="111.80129" y1="169.88678" y2="171.84307"/><line class="cls-3" x1="76.32975" x2="76.84739" y1="24.09349" y2="26.02534"/><line class="cls-3" x1="115.15261" x2="115.67025" y1="168.98236" y2="170.91422"/><line class="cls-3" x1="72.51471" x2="73.13274" y1="25.22356" y2="27.12567"/><line class="cls-3" x1="118.86726" x2="119.48529" y1="167.88204" y2="169.78415"/><line class="cls-3" x1="68.76404" x2="69.48077" y1="26.55174" y2="28.4189"/><line class="cls-3" x1="122.51923" x2="123.23596" y1="166.58881" y2="168.45597"/><line class="cls-3" x1="65.08801" x2="65.90149" y1="28.0744" y2="29.90149"/><line class="cls-3" x1="126.09851" x2="126.91198" y1="165.10622" y2="166.93331"/><line class="cls-3" x1="61.49672" x2="62.4047" y1="29.78736" y2="31.56937"/><line class="cls-3" x1="129.5953" x2="130.50328" y1="163.43834" y2="165.22035"/><line class="cls-3" x1="54.60743" x2="55.69671" y1="33.76489" y2="35.44223"/><line class="cls-3" x1="136.30329" x2="137.39257" y1="159.56548" y2="161.24282"/><line class="cls-3" x1="51.32832" x2="52.50389" y1="36.01856" y2="37.6366"/><line class="cls-3" x1="48.17165" x2="49.43029" y1="38.44076" y2="39.99505"/><line class="cls-3" x1="36.93691" x2="38.4912" y1="49.6755" y2="50.93414"/><line class="cls-3" x1="153.5088" x2="155.06309" y1="144.07356" y2="145.3322"/><line class="cls-3" x1="34.51471" x2="36.13274" y1="52.83217" y2="54.00775"/><line class="cls-3" x1="155.86726" x2="157.48529" y1="140.99996" y2="142.17553"/><line class="cls-3" x1="32.26104" x2="33.93838" y1="56.11129" y2="57.20057"/><line class="cls-3" x1="158.06162" x2="159.73896" y1="137.80714" y2="138.89642"/><line class="cls-3" x1="28.2835" x2="30.06552" y1="63.00058" y2="63.90856"/><line class="cls-3" x1="161.93448" x2="163.7165" y1="131.09915" y2="132.00713"/><line class="cls-3" x1="26.57054" x2="28.39764" y1="66.59187" y2="67.40534"/><line class="cls-3" x1="163.60236" x2="165.42945" y1="127.60237" y2="128.41584"/><line class="cls-3" x1="25.04789" x2="26.91505" y1="70.26789" y2="70.98463"/><line class="cls-3" x1="165.08495" x2="166.95211" y1="124.02308" y2="124.73982"/><line class="cls-3" x1="23.7197" x2="25.62182" y1="74.01856" y2="74.6366"/><line class="cls-3" x1="166.37818" x2="168.28029" y1="120.37111" y2="120.98915"/><line class="cls-3" x1="22.58964" x2="24.52149" y1="77.83361" y2="78.35124"/><line class="cls-3" x1="167.47851" x2="169.41036" y1="116.65646" y2="117.1741"/><line class="cls-3" x1="21.66078" x2="23.61708" y1="81.70257" y2="82.11839"/><line class="cls-3" x1="168.38292" x2="170.33922" y1="112.88932" y2="113.30514"/><line class="cls-3" x1="20.93569" x2="22.91106" y1="85.61483" y2="85.9277"/><line class="cls-3" x1="169.08894" x2="171.06431" y1="109.08" y2="109.39287"/><line class="cls-3" x1="20.41634" x2="22.40538" y1="89.55969" y2="89.76875"/><line class="cls-3" x1="169.59462" x2="171.58366" y1="105.23896" y2="105.44802"/><line class="cls-3" x1="20.10416" x2="22.10141" y1="93.52632" y2="93.63099"/><line class="cls-3" x1="20.10416" x2="22.10141" y1="101.48139" y2="101.37671"/><line class="cls-3" x1="20.41634" x2="22.40538" y1="105.44802" y2="105.23896"/><line class="cls-3" x1="169.59462" x2="171.58366" y1="89.76875" y2="89.55969"/><line class="cls-3" x1="20.93569" x2="22.91106" y1="109.39287" y2="109.08"/><line class="cls-3" x1="169.08894" x2="171.06431" y1="85.9277" y2="85.61483"/><line class="cls-3" x1="21.66078" x2="23.61708" y1="113.30514" y2="112.88932"/><line class="cls-3" x1="168.38292" x2="170.33922" y1="82.11839" y2="81.70257"/><line class="cls-3" x1="22.58964" x2="24.52149" y1="117.1741" y2="116.65646"/><line class="cls-3" x1="167.47851" x2="169.41036" y1="78.35124" y2="77.83361"/><line class="cls-3" x1="23.7197" x2="25.62182" y1="120.98915" y2="120.37111"/><line class="cls-3" x1="166.37818" x2="168.28029" y1="74.6366" y2="74.01856"/><line class="cls-3" x1="25.04789" x2="26.91505" y1="124.73982" y2="124.02308"/><line class="cls-3" x1="165.08495" x2="166.95211" y1="70.98463" y2="70.26789"/><line class="cls-3" x1="26.57054" x2="28.39764" y1="128.41584" y2="127.60237"/><line class="cls-3" x1="163.60236" x2="165.42945" y1="67.40534" y2="66.59187"/><line class="cls-3" x1="28.2835" x2="30.06552" y1="132.00713" y2="131.09915"/><line class="cls-3" x1="161.93448" x2="163.7165" y1="63.90856" y2="63.00058"/><line class="cls-3" x1="32.26104" x2="33.93838" y1="138.89642" y2="137.80714"/><line class="cls-3" x1="158.06162" x2="159.73896" y1="57.20057" y2="56.11129"/><line class="cls-3" x1="34.51471" x2="36.13274" y1="142.17553" y2="140.99996"/><line class="cls-3" x1="36.93691" x2="38.4912" y1="145.3322" y2="144.07356"/><line class="cls-3" x1="39.52099" x2="41.00728" y1="148.35778" y2="147.01952"/><line class="cls-3" x1="42.25988" x2="43.6741" y1="151.24397" y2="149.82976"/><line class="cls-3" x1="45.14607" x2="46.48433" y1="153.98286" y2="152.49657"/><line class="cls-3" x1="48.17165" x2="49.43029" y1="156.56695" y2="155.01265"/><line class="cls-3" x1="51.32832" x2="52.50389" y1="158.98915" y2="157.37111"/><line class="cls-3" x1="54.60743" x2="55.69671" y1="161.24282" y2="159.56548"/><line class="cls-3" x1="61.49672" x2="62.4047" y1="165.22035" y2="163.43834"/><line class="cls-3" x1="65.08801" x2="65.90149" y1="166.93331" y2="165.10622"/><line class="cls-3" x1="68.76404" x2="69.48077" y1="168.45597" y2="166.58881"/><line class="cls-3" x1="72.51471" x2="73.13274" y1="169.78415" y2="167.88204"/><line class="cls-3" x1="118.86726" x2="119.48529" y1="27.12567" y2="25.22356"/><line class="cls-3" x1="76.32975" x2="76.84739" y1="170.91422" y2="168.98236"/><line class="cls-3" x1="115.15261" x2="115.67025" y1="26.02534" y2="24.09349"/><line class="cls-3" x1="80.19871" x2="80.61453" y1="171.84307" y2="169.88678"/><line class="cls-3" x1="111.38546" x2="111.80129" y1="25.12093" y2="23.16464"/><line class="cls-3" x1="84.11098" x2="84.42385" y1="172.56817" y2="170.59279"/><line class="cls-3" x1="107.57615" x2="107.88902" y1="24.41492" y2="22.43954"/><line class="cls-3" x1="88.05584" x2="88.26489" y1="173.08752" y2="171.09847"/><line class="cls-3" x1="103.73511" x2="103.94416" y1="23.90923" y2="21.92019"/><line class="cls-3" x1="99.87286" x2="99.97753" y1="23.60527" y2="21.60801"/><circle class="cls-3" cx="96" cy="97.49613" r="8"/><circle class="cls-5" cx="96" cy="97.49613" r="5"/><path class="cls-3" d="M105.39347,72.46839l3.04128-7.66489,1.14723-8.59127a5.4136,5.4136,0,0,0-3.05922-5.6141l-8.667-4.06956.97962-7.33592a2.59824,2.59824,0,0,0-1.87416-2.9034,2.50055,2.50055,0,0,0-3.063,2.10007l-2.268,16.848"/><polyline class="cls-3" points="103.969 98.249 107.376 72.733 91.893 70.666"/><line class="cls-3" x1="91.551" x2="88.14376" y1="70.61994" y2="96.13572"/><path class="cls-3" d="M91.66406,51.20637l-1.56328-.20875a2,2,0,0,0-2.24712,1.71768l-1.00345,7.51456a2,2,0,0,0,.49164,1.598l4.71233,5.024L91.551,70.61994"/><path class="cls-3" d="M70.95786,104.57435l-7.96652,2.12937-7.5807,4.20222a5.4136,5.4136,0,0,0-2.68241,5.80359l1.90148,9.38417-6.473,3.58819a2.59825,2.59825,0,0,0-1.21309,3.23584,2.50054,2.50054,0,0,0,3.51233,1.20645L65.33305,125.898"/><polyline class="cls-3" points="88.604 92.519 69.988 102.825 77.561 116.487"/><line class="cls-3" x1="77.72856" x2="100.12219" y1="116.78859" y2="104.36744"/><path class="cls-3" d="M62.077,128.27458l.76463,1.37939a2,2,0,0,0,2.71886.77957l6.63065-3.67558a2,2,0,0,0,.98961-1.34759l1.22291-6.7787,3.32488-1.84308"/><path class="cls-3" d="M10.47775,183.01833c22.81684,22.81687,79.60316,3.024,126.83579-44.20861l-4.73944-3.04425,13.17241-7.18495-3.19332,12.97283-8.38244-4.98955"/><path class="cls-6" d="M189.34943,53.21717c3.63909-17.36105,1.36014-32.05591-7.82718-41.24324"/><g><line class="cls-7" x1="10.47778" x2="10.47778" y1="183.01834" y2="183.01834"/><path class="cls-8" d="M7.89185,180.05252c-8.86744-11.69067-8.92408-30.13586-1.62842-51.1521"/><line class="cls-7" x1="6.92773" x2="6.92773" y1="127.03525" y2="127.03525"/></g><path class="cls-9" d="M181.52225,11.97393C169.803.25462,149.12218-.2238,125.37727,8.48314"/><line class="cls-3" x1="63.89927" x2="65.89927" y1="180.77907" y2="180.77907"/><line class="cls-3" x1="69.28455" x2="67.28457" y1="182.0176" y2="182.0176"/><line class="cls-3" x1="82.9498" x2="80.94981" y1="184.98999" y2="184.98999"/><line class="cls-3" x1="86.70642" x2="84.70645" y1="185.78823" y2="185.78823"/><line class="cls-3" x1="189.32118" x2="187.32118" y1="56.7607" y2="56.7607"/><line class="cls-3" x1="188.22393" x2="186.22392" y1="59.86292" y2="59.86292"/><line class="cls-3" x1="172.94887" x2="170.94887" y1="51.27578" y2="51.27578"/><line class="cls-3" x1="142.39857" x2="140.39857" y1="21.13827" y2="21.13827"/><line class="cls-3" x1="185.63684" x2="183.63684" y1="89.33991" y2="89.33991"/><line class="cls-3" x1="185.74696" x2="183.74696" y1="105.41329" y2="105.41329"/><polygon class="cls-10" points="31.036 9.042 29.076 3.533 22.924 3.533 20.964 9.042 16.486 10.897 11.205 8.387 6.854 12.737 9.365 18.019 7.51 22.497 2 24.456 2 30.609 7.51 32.568 9.365 37.047 6.854 42.328 11.205 46.679 16.486 44.168 20.964 46.023 22.924 51.533 29.076 51.533 31.036 46.023 35.514 44.168 40.795 46.679 45.146 42.328 42.635 37.047 44.49 32.568 50 30.609 50 24.456 44.49 22.497 42.635 18.019 45.146 12.737 40.795 8.387 35.514 10.897 31.036 9.042"/><polygon class="cls-3" points="31.036 9.042 29.076 3.533 22.924 3.533 20.964 9.042 16.486 10.897 11.205 8.387 6.854 12.737 9.365 18.019 7.51 22.497 2 24.456 2 30.609 7.51 32.568 9.365 37.047 6.854 42.328 11.205 46.679 16.486 44.168 20.964 46.023 22.924 51.533 29.076 51.533 31.036 46.023 35.514 44.168 40.795 46.679 45.146 42.328 42.635 37.047 44.49 32.568 50 30.609 50 24.456 44.49 22.497 42.635 18.019 45.146 12.737 40.795 8.387 35.514 10.897 31.036 9.042"/><circle class="cls-3" cx="26" cy="27.53272" r="8.8"/><circle class="cls-5" cx="26" cy="27.53272" r="4"/><circle class="cls-11" cx="26" cy="27.53272" r="13.2"/><line class="cls-3" x1="167.18847" x2="167.18847" y1="191.50345" y2="193.50342"/><line class="cls-3" x1="167.18851" x2="167.18851" y1="189.50385" y2="182.09664"/><line class="cls-3" x1="162.18847" x2="162.18847" y1="189.50345" y2="191.50342"/><line class="cls-3" x1="162.18851" x2="162.18851" y1="187.50385" y2="181.78043"/><line class="cls-3" x1="172.18847" x2="172.18847" y1="189.50345" y2="191.50342"/><line class="cls-3" x1="172.18851" x2="172.18851" y1="187.50385" y2="182.44613"/><rect class="cls-10" height="32.13495" width="47.62298" x="143.37703" y="150.31119"/><line class="cls-3" x1="178.20214" x2="178.20214" y1="168.28763" y2="170.2876"/><line class="cls-3" x1="175.49999" x2="175.49999" y1="149.31107" y2="151.31104"/><polyline class="cls-3" points="191 150.865 191 151.418 175.5 166.918 159 166.918 143.5 151.418 143.5 150.865"/><line class="cls-12" x1="156.28062" x2="143.5" y1="168.68312" y2="181.38746"/><line class="cls-3" x1="180.33974" x2="191" y1="170.78508" y2="181.38746"/><line class="cls-3" x1="156.28062" x2="143.5" y1="168.68312" y2="181.38746"/><polyline class="cls-3" points="178.219 150.311 191 150.311 191 151.418"/><polyline class="cls-3" points="143.5 151.418 143.5 150.311 173 150.311"/><polyline class="cls-3" points="191 150.311 191 182.446 143.5 182.446 143.5 150.311"/><path class="cls-3" d="M129.59883,93.50385h57.40126A3.94913,3.94913,0,0,1,191,97.44386l0,.03a4.02576,4.02576,0,0,1-4,4.03H129.59871l-8.67458-4Z"/><line class="cls-3" x1="180.48545" x2="180.48545" y1="101.50385" y2="93.50385"/><line class="cls-3" x1="152.74273" x2="180.48545" y1="97.50385" y2="97.50385"/><line class="cls-3" x1="130.48545" x2="152.74273" y1="97.50385" y2="97.50385"/><circle class="cls-5" cx="159.10393" cy="34.50296" r="4"/><path class="cls-3" d="M159.10393,18.503a16,16,0,1,0,16,16A15.99993,15.99993,0,0,0,159.10393,18.503Zm0,28a12,12,0,1,1,12-12A12,12,0,0,1,159.10393,46.503Z"/><path class="cls-3" d="M159.10393,26.503a8,8,0,1,0,8,8A8,8,0,0,0,159.10393,26.503Z"/><line class="cls-3" x1="132.00385" x2="159.00385" y1="34.51437" y2="34.51437"/><polygon class="cls-3" points="129.105 30.514 122.104 30.514 122.104 31.513 125.105 34.514 122.104 37.516 122.104 38.514 129.105 38.514 133.105 34.514 129.105 30.514"/></svg>