<?xml version="1.0" ?><svg id="icons" viewBox="0 0 192 192" xmlns="http://www.w3.org/2000/svg"><defs><style>
      .cls-1 {
        fill: #5fe0ed;
      }

      .cls-2 {
        fill: #dededd;
      }

      .cls-3 {
        fill: #ffd15d;
      }

      .cls-4, .cls-7, .cls-9 {
        fill: none;
      }

      .cls-10, .cls-4, .cls-7 {
        stroke: #475059;
        stroke-width: 2px;
      }

      .cls-10, .cls-4, .cls-9 {
        stroke-miterlimit: 10;
      }

      .cls-5 {
        fill: #475059;
      }

      .cls-6 {
        fill: #f58e70;
      }

      .cls-7 {
        stroke-linejoin: round;
      }

      .cls-10, .cls-8 {
        fill: #fff;
      }

      .cls-9 {
        stroke: #dededd;
        stroke-width: 3px;
      }
    </style></defs><title/><polygon class="cls-1" points="133 111.008 149 111.008 149 64.25 86 127.25 64 105.25 42 127.25 29.492 114.742 29.492 178.008 133 178.008 133 111.008"/><g><polygon class="cls-2" points="32.935 69.008 32.935 43.008 59.935 43.008 32.935 69.008"/><polygon class="cls-3" points="57.437 11.008 58.965 11.008 58.965 40.062 29.935 40.062 29.935 38.51 57.437 11.008"/><polyline class="cls-4" points="58.965 11.008 58.965 40.124 29.935 40.124"/><line class="cls-4" x1="105.96833" x2="133" y1="181.00772" y2="181.00772"/><line class="cls-4" x1="152" x2="152" y1="71.04413" y2="111.00772"/></g><polyline class="cls-4" points="30.042 101.899 29.935 38.51 57.437 11.008 128 11.008"/><g><rect class="cls-1" height="16" width="43.9928" x="139.49091" y="117.06472"/><path class="cls-3" d="M135.49331,136.06172v51.988h51.988v-51.988Zm11.9976,47.9904h-8v-8h8Zm0-11.9976h-8v-8h8Zm0-11.9976h-8v-8h8Zm0-11.9976h-8v-8h8Zm11.9976,35.9928h-8v-8h8Zm0-11.9976h-8v-8h8Zm0-11.9976h-8v-8h8Zm0-11.9976h-8v-8h8Zm11.9976,35.9928h-8v-8h8Zm0-11.9976h-8v-8h8Zm0-11.9976h-8v-8h8Zm0-11.9976h-8v-8h8Zm11.9976,23.9952v11.9976h-8v-19.9976h8Zm0-11.9976h-8v-8h8Zm0-11.9976h-8v-8h8Z"/><g><rect class="cls-4" height="8" width="8" x="139.49091" y="140.05932"/><rect class="cls-4" height="8" width="8" x="139.49091" y="152.05692"/><rect class="cls-4" height="8" width="8" x="139.49091" y="164.05452"/><rect class="cls-4" height="8" width="8" x="139.49091" y="176.05212"/><rect class="cls-4" height="8" width="8" x="151.48851" y="140.05932"/><rect class="cls-4" height="8" width="8" x="151.48851" y="152.05692"/><rect class="cls-4" height="8" width="8" x="151.48851" y="164.05452"/><rect class="cls-4" height="8" width="8" x="151.48851" y="176.05212"/><rect class="cls-4" height="8" width="8" x="163.48611" y="140.05932"/><rect class="cls-4" height="8" width="8" x="163.48611" y="152.05692"/><rect class="cls-4" height="8" width="8" x="163.48611" y="164.05452"/><rect class="cls-4" height="8" width="8" x="163.48611" y="176.05212"/><rect class="cls-4" height="8" width="8" x="175.48371" y="140.05932"/><rect class="cls-4" height="8" width="8" x="175.48371" y="152.05692"/><polygon class="cls-4" points="175.484 164.055 175.484 172.055 175.484 184.052 183.484 184.052 183.484 172.055 183.484 164.055 175.484 164.055"/><line class="cls-4" x1="135.49331" x2="187.48131" y1="136.06172" y2="136.06172"/><path class="cls-5" d="M178.474,126.06461h-2v-2h2Zm-4,0h-2v-2h2Zm-4,0h-2v-2h2Zm-4,0h-2v-2h2Zm-4,0h-2v-2h2Zm-4,0h-2v-2h2Zm-4,0h-2v-2h2Zm-4,0h-2v-2h2Zm-4,0h-1.99267v-2H146.474Z"/></g><polyline class="cls-4" points="186.481 136.015 186.481 114.008 136.493 114.008 136.493 136.015"/></g><g><g><path class="cls-1" d="M160.001,32.00772l19.78955-19.78894A27.91253,27.91253,0,0,0,160,4.00772v28Z"/><polygon class="cls-1" points="160 32.009 160.001 32.008 160 32.008 160 32.009"/><path class="cls-6" d="M140.21045,51.79752A27.91213,27.91213,0,0,0,160,60.00772V32.00864Z"/><path class="cls-6" d="M160.001,32.00772H188a27.91328,27.91328,0,0,0-8.20947-19.78894Z"/><path class="cls-3" d="M160,32.00864V60.00772a28.03161,28.03161,0,0,0,28-28H160.001Z"/><path class="cls-1" d="M160,32.00772,140.20923,12.219a27.95529,27.95529,0,0,0,.00122,39.57855L160,32.00864Z"/><line class="cls-7" x1="160" x2="160" y1="32.00772" y2="1.07347"/><line class="cls-7" x1="138.08371" x2="154" y1="10.09144" y2="26.00772"/></g><path class="cls-4" d="M181.01112,9.21424a30.92094,30.92094,0,1,1-5.21095-3.88337"/></g><polyline class="cls-4" points="143 66.008 86 123.008 64 101.008 42 123.008 20 101.008 3 118.008"/><polyline class="cls-4" points="135 66.008 143 66.008 143 74.008"/><line class="cls-4" x1="100" x2="72" y1="181.00772" y2="181.00772"/><path class="cls-8" d="M37.08909,137.995l-2.44919-6.8872H26.949l-2.44919,6.8872-5.59761,2.31861-6.60183-3.13815-5.43827,5.43827,3.13816,6.60183-2.31861,5.59761L.79446,157.26231v7.69087l6.88721,2.44919L10.00028,173l-3.13816,6.60183,5.43827,5.43828,6.60183-3.13816,5.59761,2.31861,2.44919,6.88721H34.6399l2.44919-6.88721,5.59761-2.31861,6.60183,3.13816,5.43827-5.43828L51.58864,173l2.31861-5.59761,6.88721-2.44919v-7.69087l-6.88721-2.44919-2.31861-5.59761,3.13816-6.60183-5.43827-5.43827-6.60183,3.13815Z"/><polygon class="cls-4" points="37.089 137.995 34.64 131.108 26.949 131.108 24.5 137.995 18.902 140.314 12.3 137.175 6.862 142.614 10 149.216 7.682 154.813 0.794 157.262 0.794 164.953 7.682 167.402 10 173 6.862 179.602 12.3 185.04 18.902 181.902 24.5 184.221 26.949 191.108 34.64 191.108 37.089 184.221 42.687 181.902 49.289 185.04 54.727 179.602 51.589 173 53.907 167.402 60.794 164.953 60.794 157.262 53.907 154.813 51.589 149.216 54.727 142.614 49.289 137.175 42.687 140.314 37.089 137.995"/><circle class="cls-4" cx="30.79446" cy="161.10775" r="11"/><circle class="cls-6" cx="30.79446" cy="161.10775" r="5"/><circle class="cls-9" cx="30.79446" cy="161.10775" r="16.5"/><circle class="cls-10" cx="42" cy="123.00772" r="5"/><circle class="cls-10" cx="64" cy="101.00772" r="5"/><circle class="cls-10" cx="20" cy="101.00772" r="5"/><circle class="cls-10" cx="86" cy="123.00772" r="5"/><line class="cls-4" x1="58.54722" x2="85.62017" y1="61.86167" y2="61.86167"/><line class="cls-4" x1="58.54722" x2="85.62017" y1="66.86167" y2="66.86167"/><g><g><line class="cls-4" x1="168.56111" x2="168.56111" y1="88.00772" y2="92.00772"/><line class="cls-4" x1="168.56111" x2="168.56111" y1="98.00772" y2="102.00772"/></g><g><line class="cls-4" x1="161.56111" x2="165.56111" y1="95.00772" y2="95.00772"/><line class="cls-4" x1="171.56111" x2="175.56111" y1="95.00772" y2="95.00772"/></g></g><g><g><line class="cls-4" x1="13.56111" x2="13.56111" y1="62.00772" y2="66.00772"/><line class="cls-4" x1="13.56111" x2="13.56111" y1="72.00772" y2="76.00772"/></g><g><line class="cls-4" x1="6.56111" x2="10.56111" y1="69.00772" y2="69.00772"/><line class="cls-4" x1="16.56111" x2="20.56111" y1="69.00772" y2="69.00772"/></g></g><circle class="cls-1" cx="96.82338" cy="91.35074" r="2"/><circle class="cls-3" cx="46.45966" cy="91.29226" r="2"/><circle class="cls-3" cx="180" cy="74.00772" r="2"/><circle class="cls-1" cx="113.82338" cy="24.35074" r="2"/><circle class="cls-1" cx="20" cy="42.00772" r="2"/><circle class="cls-5" cx="1.00002" cy="119.75936" r="1"/><circle class="cls-5" cx="30" cy="105.00772" r="1"/><circle class="cls-5" cx="131" cy="11.00772" r="1"/><circle class="cls-5" cx="178.63457" cy="7.20484" r="1"/><circle class="cls-5" cx="152" cy="68.00772" r="1"/><circle class="cls-5" cx="103.03329" cy="180.90774" r="1"/><circle class="cls-5" cx="69" cy="180.90774" r="1"/><circle class="cls-5" cx="156.5" cy="28.50772" r="1"/></svg>