<?xml version="1.0" ?><svg xmlns:xlink="http://www.w3.org/1999/xlink" id="Layer_2" style="enable-background:new 0 0 192.2 162.2;" version="1.1" viewBox="0 0 192.2 162.2" xml:space="preserve" xmlns="http://www.w3.org/2000/svg"><style type="text/css">
	.st0{fill:#DEDEDD;}
	.st1{fill:#5FE0ED;}
	.st2{fill:#475059;}
	.st3{fill:#48515A;}
	.st4{fill:none;stroke:#475059;stroke-width:2;stroke-miterlimit:10;}
	.st5{fill:#FFD15D;}
</style><title/><desc/><g><g><g><g><polygon class="st0" points="73.1,59.2 73.1,86.4 76.1,88.5 76.1,99.2 103.1,99.2 103.1,59.2     "/></g></g><g><g><polygon class="st0" points="129.1,100.2 129.1,41.2 159.1,41.2 159.1,114.7 140.6,114.7 140.6,100.2     "/></g></g><g><g><path class="st1" d="M28.3,26.1v-3c0-2.7,2.2-5,5-5h0v0c0-2.7,2.2-5,5-5h6.9c2.7,0,5,2.2,5,5v3h3c2.7,0,5,2.2,5,5v4h-8.9      c-2.2,0-4-1.8-4-4v0h-3H28.3z"/></g></g><g><g><path class="st1" d="M130.1,31.2v-6c0-5.5,4.5-10,10-10h0v0c0-5.5,4.5-10,10-10h14c5.5,0,10,4.5,10,10v6h6c5.5,0,10,4.5,10,10v8      h-18c-4.4,0-8-3.6-8-8v0h-6H130.1z"/></g></g><g><g><path class="st1" d="M58.3,26.1v-3c0-2.7,2.2-5,5-5h0v0c0-2.7,2.2-5,5-5h6.9c2.7,0,5,2.2,5,5v3h3c2.7,0,5,2.2,5,5v4h-8.9      c-2.2,0-4-1.8-4-4v0h-3H58.3z"/></g></g><g><g><g><polygon class="st2" points="17.1,134.2 15.1,134.2 15.1,68.4 45.1,86.4 45.1,68.4 76.9,87.6 76.9,133.2 74.9,133.2 74.9,88.7        47.1,71.9 47.1,89.9 17.1,71.9      "/></g></g><g><g><rect class="st1" height="16" width="4" x="55.1" y="94.2"/></g></g><g><g><rect class="st1" height="16" width="4" x="63.1" y="94.2"/></g></g><g><g><g><g><polygon class="st3" points="37.1,83.2 34,26.2 29.9,26.2 27.1,75.2 25.1,75.1 28,24.2 35.9,24.2 35.9,25.1 39.1,83.1                 "/></g></g></g></g><g><g><g><g><polygon class="st3" points="67.1,83.2 64,26.2 59.9,26.2 57.1,75.2 55.1,75.1 58,24.2 65.9,24.2 69.1,83.1        "/></g></g></g></g><g><g><rect class="st1" height="16" width="4" x="55.1" y="112.2"/></g></g><g><g><rect class="st1" height="16" width="4" x="63.1" y="112.2"/></g></g><g><g><rect class="st1" height="16" width="4" x="25.1" y="94.2"/></g></g><g><g><rect class="st1" height="16" width="4" x="33.1" y="94.2"/></g></g><g><g><rect class="st1" height="16" width="4" x="25.1" y="112.2"/></g></g><g><g><rect class="st1" height="16" width="4" x="33.1" y="112.2"/></g></g></g><g><g><path class="st2" d="M101.1,162.2h-92v-29h92V162.2z M11.1,160.2h88v-25h-88V160.2z"/></g></g><g><g><polygon class="st2" points="170.1,162.2 140.1,162.2 140.1,160.2 168.1,160.2 168.1,127.5 158.6,116.2 140.1,116.2       140.1,114.2 159.6,114.2 170.1,126.8     "/></g></g><g><g><polygon class="st2" points="141.1,162.2 100.1,162.2 100.1,160.2 139.1,160.2 139.1,100.2 77.1,100.2 77.1,133.9 75.1,133.9       75.1,98.2 141.1,98.2     "/></g></g><g><g><rect class="st1" height="16" width="4" x="15.1" y="140.2"/></g></g><g><g><rect class="st1" height="16" width="4" x="23.1" y="140.2"/></g></g><g><g><rect class="st1" height="16" width="4" x="31.1" y="140.2"/></g></g><g><g><rect class="st1" height="16" width="4" x="39.1" y="140.2"/></g></g><g><g><polygon class="st2" points="161.1,116.2 159.1,116.2 159.1,32.2 129.1,32.2 129.1,100.2 127.1,100.2 127.1,30.2 161.1,30.2           "/></g></g><g><g><path class="st4" d="M102.1,59.2"/></g></g><g><g><path class="st4" d="M74.1,59.2"/></g></g><g><g><rect class="st5" height="15" width="28" x="65.1" y="146.2"/></g></g><g><g><path class="st3" d="M97.1,162.2h-36v-20h36V162.2z M63.1,160.2h32v-16h-32V160.2z"/></g></g><g><g><rect class="st3" height="2" width="34" x="62.1" y="148.2"/></g></g><g><g><rect class="st3" height="2" width="34" x="62.1" y="154.2"/></g></g><g><g><path class="st5" d="M79.1,102.2v28.8c6,0.1,19.2,0.2,21,0.2l3,0v27h34v-56H79.1z M86,128.1h-4v-16h4V128.1z M94,128.1h-4v-16h4      V128.1z M102,128.1h-4v-16h4V128.1z M110.1,128.1h-4v-16h4V128.1z M118.1,128.1h-4v-16h4V128.1z M126.1,128.1h-4v-16h4V128.1z       M134.1,128.1h-4v-16h4V128.1z"/></g></g><g><g><rect class="st1" height="16" width="4" x="148.1" y="125.1"/></g></g><g><g><rect class="st1" height="16" width="4" x="156.1" y="125.1"/></g></g><g><g><g><g><rect class="st3" height="4" width="2" x="184.2" y="120.1"/></g></g><g><g><rect class="st3" height="4" width="2" x="184.2" y="130.1"/></g></g></g><g><g><g><rect class="st3" height="2" width="4" x="188.2" y="126.1"/></g></g><g><g><rect class="st3" height="2" width="4" x="178.2" y="126.1"/></g></g></g></g><g><g><g><g><rect class="st3" height="4" width="2" x="6" y="50.1"/></g></g><g><g><rect class="st3" height="4" width="2" x="6" y="60.1"/></g></g></g><g><g><g><rect class="st3" height="2" width="4" x="10" y="56.1"/></g></g><g><g><rect class="st3" height="2" width="4" x="0" y="56.1"/></g></g></g></g><g><g><g><g><rect class="st3" height="4" width="2" x="116.1" y="0"/></g></g><g><g><rect class="st3" height="4" width="2" x="116.1" y="10"/></g></g></g><g><g><g><rect class="st3" height="2" width="4" x="120.1" y="6"/></g></g><g><g><rect class="st3" height="2" width="4" x="110.1" y="6"/></g></g></g></g><g><g><path class="st3" d="M175,63.1c-2.2,0-4-1.8-4-4s1.8-4,4-4s4,1.8,4,4S177.2,63.1,175,63.1z M175,57.1c-1.1,0-2,0.9-2,2      s0.9,2,2,2s2-0.9,2-2S176.1,57.1,175,57.1z"/></g></g><g><g><path class="st3" d="M5.9,113.2c-2.2,0-4-1.8-4-4s1.8-4,4-4s4,1.8,4,4S8.1,113.2,5.9,113.2z M5.9,107.2c-1.1,0-2,0.9-2,2      s0.9,2,2,2s2-0.9,2-2S7,107.2,5.9,107.2z"/></g></g><g><g><circle class="st0" cx="166" cy="97.1" r="2"/></g></g><g><g><circle class="st0" cx="46" cy="37.1" r="2"/></g></g><g><g><circle class="st0" cx="178.1" cy="147.1" r="2"/></g></g><g><g><g><polygon class="st2" points="129.1,100.2 120.4,100.2 104.7,84.2 103.1,84.2 103.1,82.2 105.5,82.2 121.3,98.2 129.1,98.2             "/></g></g><g><g><polygon class="st2" points="129.1,91.2 125.9,91.2 109.9,75.2 103.1,75.2 103.1,73.2 110.8,73.2 126.8,89.2 129.1,89.2             "/></g></g></g><g><g><polygon class="st2" points="105.1,99.1 103.1,99.1 103.1,50.2 73.1,50.2 73.1,86.4 71.1,86.4 71.1,48.2 105.1,48.2     "/></g></g></g></g></svg>