<?xml version="1.0" ?><svg id="icons" viewBox="0 0 192 192" xmlns="http://www.w3.org/2000/svg"><defs><style>
      .cls-1 {
        fill: #dededd;
      }

      .cls-2 {
        fill: #ffd15d;
      }

      .cls-11, .cls-12, .cls-3, .cls-6, .cls-7, .cls-9 {
        fill: none;
      }

      .cls-3, .cls-8, .cls-9 {
        stroke: #475059;
      }

      .cls-11, .cls-12, .cls-3, .cls-6, .cls-7, .cls-8, .cls-9 {
        stroke-miterlimit: 10;
      }

      .cls-11, .cls-12, .cls-3, .cls-7, .cls-8, .cls-9 {
        stroke-width: 2px;
      }

      .cls-4 {
        fill: #5fe0ed;
      }

      .cls-5 {
        fill: #f58e70;
      }

      .cls-11, .cls-6 {
        stroke: #dededd;
      }

      .cls-6 {
        stroke-width: 3px;
      }

      .cls-7 {
        stroke: #ffd15d;
      }

      .cls-8 {
        fill: #fff;
      }

      .cls-9 {
        stroke-linecap: round;
      }

      .cls-10 {
        fill: #475059;
      }

      .cls-12 {
        stroke: #fff;
      }
    </style></defs><title/><g><polygon class="cls-1" points="40.013 77.399 40.013 51.399 67.013 51.399 40.013 77.399"/><polygon class="cls-2" points="64.502 19.008 66.03 19.008 66.03 48.062 37 48.062 37 46.51 64.502 19.008"/><polyline class="cls-3" points="66.03 19.008 66.03 48.124 37 48.124"/><polyline class="cls-3" points="77.032 189.008 37 189.008 37 142.008"/><polyline class="cls-3" points="159 115.008 159 189.008 83 189.008"/><polyline class="cls-3" points="123.694 19.008 159 19.008 159 38.008"/><polyline class="cls-3" points="37 53.976 37 46.51 64.502 19.008 72.292 19.008"/></g><circle class="cls-4" cx="57.01584" cy="175.5" r="2.66667"/><circle class="cls-2" cx="172.3135" cy="31.51015" r="2.0504"/><g><path class="cls-1" d="M68.72559,82.6514c1.23388,2.97919,1.85742,4.48425,3.09155,7.4635l6.94092,2.46826L82.90967,83.849c-3.62061-3.62085-3.63013-3.63025-7.251-7.251l-5.2395,2.49061Z"/><path class="cls-1" d="M91,113.635V103.38047l-9.18286-3.26557c-.30347-.73248-.56934-1.37451-.81714-1.97253V103.635l-9.18286,3.26557c-1.23413,2.97924-1.85767,4.48425-3.09155,7.4635l4.18408,8.80243c-3.62061,3.62079-3.63013,3.63019-7.251,7.251l-8.80224-4.1842c-2.9795,1.234-4.48438,1.85742-7.46363,3.09143l-3.26562,9.183H40.63477c.5979.24775,1.24.51362,1.97241.817l3.26562,9.183H56.1272l3.26562-9.183c2.97925-1.234,4.48413-1.85742,7.46363-3.09143l8.80224,4.1842c3.62085-3.62084,3.63037-3.63024,7.251-7.251l-4.18408-8.80243c1.23388-2.97925,1.85742-4.48426,3.09155-7.4635Z"/><path class="cls-1" d="M32.60718,129.32474c-2.97925-1.234-4.48413-1.85742-7.46363-3.09143l-3.56274,1.6936-2.49048,5.23957c3.62061,3.62079,3.63013,3.63019,7.251,7.251l8.73413-4.15179Z"/></g><g><path class="cls-3" d="M99.10716,109.44067l3.26559-9.18295h10.2545l3.26559,9.18295,7.46348,3.09147,8.80244-4.1842,7.251,7.251-4.18421,8.80244,3.09148,7.46348L147.5,135.13047V145.385l-9.18294,3.26558-3.09148,7.46348,4.18421,8.80244-7.251,7.251-8.80244-4.18421-7.46348,3.09148-3.26559,9.18294h-10.2545l-3.26559-9.18294-7.46348-3.09148-8.80244,4.18421-7.251-7.251,4.18421-8.80244-3.09148-7.46348L67.5,145.385V135.13047l9.18294-3.26558,3.09148-7.46348L75.59021,115.599l7.251-7.251,8.80244,4.1842Z"/><path class="cls-3" d="M115.885,133.13759a10.97687,10.97687,0,1,1-3.56153-2.76868"/><circle class="cls-5" cx="107.5" cy="140.25772" r="5"/><circle class="cls-6" cx="107.5" cy="140.25772" r="16.5"/></g><g><path class="cls-3" d="M32.60716,68.44067l3.26559-9.18295h10.2545l3.26559,9.18295,7.46348,3.09147,8.80244-4.1842,7.251,7.251-4.18421,8.80244,3.09148,7.46348L81,94.13047V104.385l-9.18294,3.26558L68.72558,115.114l4.18421,8.80244-7.251,7.251-8.80244-4.18421-7.46348,3.09148-3.26559,9.18294H35.87275l-3.26559-9.18294-7.46348-3.09148-8.80244,4.18421-7.251-7.251,4.18421-8.80244-3.09148-7.46348L1,104.385V94.13047l9.18294-3.26558,3.09148-7.46348L9.09021,74.599l7.251-7.251,8.80244,4.1842Z"/><circle class="cls-3" cx="41" cy="99.25772" r="11"/><circle class="cls-5" cx="41" cy="99.25772" r="5"/><circle class="cls-6" cx="41" cy="99.25772" r="16.5"/></g><g><path class="cls-5" d="M5.25722,160.00772h6.38035v-8H5.25722a4,4,0,1,0,0,8Z"/><line class="cls-7" x1="57.94378" x2="11.94378" y1="156.00772" y2="156.00772"/><g><path class="cls-3" d="M58.3253,152.00772H4.924a4,4,0,0,0,.00012,8H58.32542l8.67458-4Z"/><line class="cls-3" x1="11.94378" x2="11.94378" y1="160.00772" y2="152.00772"/></g></g><g><g><line class="cls-3" x1="160.42589" x2="157.5966" y1="171.42554" y2="174.25482"/><path class="cls-8" d="M167.37632,178.79423a1.90925,1.90925,0,0,1,1.1713.48519l.48524.48524,9.07094-9.07015-.72036-.72036a.56133.56133,0,0,1-.08587-.15069,29.89825,29.89825,0,0,0-6.17783-9.05166l-2.52545-2.52546.71366.71366-1.89741-1.89743a2.05408,2.05408,0,0,0-2.64219-.27694,1.98843,1.98843,0,0,0-.22377,3.02127l.93484.93485-1.7544-1.801a2.05948,2.05948,0,0,0-2.74547-.19327,1.96152,1.96152,0,0,0-.25853,2.84976c.07353.0739,1.95134,1.95155,1.95134,1.95155l-1.822-1.82209a2.03835,2.03835,0,1,0-2.94271,2.82108l1.88289,1.8829-8.41087-8.41094a2.09783,2.09783,0,0,0-2.49182-.39786,2.00611,2.00611,0,0,0-.45806,3.17739l10.54482,10.54489-2.78132-2.78134a3,3,0,0,0-4.24266,0l-.72921.72921,6.32824,6.32829a9.00009,9.00009,0,0,0,5.18122,2.558Z"/><path class="cls-3" d="M185.86993,174.2421l-4.24264-4.24264a2,2,0,0,0-2.82844,0l-9.89956,9.89949a2,2,0,0,0,0,2.82843l4.24264,4.24264"/></g><g><line class="cls-9" x1="149.92935" x2="149.92935" y1="152.16706" y2="154.16706"/><line class="cls-9" x1="144.92935" x2="142.92935" y1="159.16706" y2="159.16706"/><g><g><line class="cls-9" x1="154.72322" x2="153.59544" y1="154.14347" y2="155.27123"/><line class="cls-9" x1="145.84541" x2="144.82361" y1="163.0212" y2="164.04297"/></g><line class="cls-9" x1="146.14841" x2="144.8236" y1="155.46825" y2="154.14348"/></g></g></g><circle class="cls-10" cx="80" cy="189.00772" r="1"/><circle class="cls-10" cx="159" cy="41.00772" r="1"/><circle class="cls-10" cx="120.99999" cy="19.00772" r="1"/><circle class="cls-10" cx="116.5" cy="57.00772" r="1"/><circle class="cls-10" cx="159" cy="112.00772" r="1"/><g><g><line class="cls-3" x1="19.92935" x2="19.92935" y1="168.16706" y2="172.16706"/><line class="cls-3" x1="19.92935" x2="19.92935" y1="178.16706" y2="182.16706"/></g><g><line class="cls-3" x1="26.92935" x2="22.92935" y1="175.16706" y2="175.16706"/><line class="cls-3" x1="16.92935" x2="12.92935" y1="175.16706" y2="175.16706"/></g></g><g><g><line class="cls-3" x1="175.3135" x2="175.3135" y1="118.00772" y2="122.00772"/><line class="cls-3" x1="175.3135" x2="175.3135" y1="128.00772" y2="132.00772"/></g><g><line class="cls-3" x1="182.3135" x2="178.3135" y1="125.00772" y2="125.00772"/><line class="cls-3" x1="172.3135" x2="168.3135" y1="125.00772" y2="125.00772"/></g></g><g><g><line class="cls-3" x1="24.5" x2="24.5" y1="38.5" y2="42.5"/><line class="cls-3" x1="24.5" x2="24.5" y1="48.5" y2="52.5"/></g><g><line class="cls-3" x1="31.5" x2="27.5" y1="45.5" y2="45.5"/><line class="cls-3" x1="21.5" x2="17.5" y1="45.5" y2="45.5"/></g></g><circle class="cls-2" cx="37.61867" cy="24.17306" r="3.33333"/><circle class="cls-2" cx="177.09171" cy="145.50772" r="3.33333"/><g><path class="cls-1" d="M174.0603,55.43985a29.99135,29.99135,0,0,1-42.1206,42.12036,29.99382,29.99382,0,1,0,42.1206-42.12036Z"/><circle class="cls-11" cx="153.50002" cy="78.00545" r="4"/><circle class="cls-5" cx="150.46762" cy="74.00545" r="1"/><line class="cls-11" x1="153.50003" x2="153.50003" y1="74.00545" y2="62.00005"/><line class="cls-11" x1="156.53242" x2="166.38665" y1="81.00005" y2="90.85429"/><path class="cls-3" d="M161.71348,46.166a29.92029,29.92029,0,1,1-5.59465-1.64062"/><circle class="cls-3" cx="150.46762" cy="74.00545" r="4"/><line class="cls-3" x1="150.46763" x2="150.46763" y1="70.00545" y2="59.00005"/><line class="cls-3" x1="153.50002" x2="164.50002" y1="77.00005" y2="88.00005"/><line class="cls-3" x1="146.50002" x2="154.50002" y1="88.00005" y2="88.00005"/><g><line class="cls-3" x1="150.50002" x2="150.50002" y1="47.00065" y2="51.00245"/><line class="cls-3" x1="150.50002" x2="150.50002" y1="97.00065" y2="101.00245"/></g><g><line class="cls-3" x1="177.50089" x2="173.49909" y1="74.00158" y2="74.00158"/><line class="cls-3" x1="127.50089" x2="123.49909" y1="74.00158" y2="74.00158"/></g><g><line class="cls-3" x1="136.99957" x2="138.00047" y1="50.61809" y2="52.3517"/><line class="cls-3" x1="162.99957" x2="164.00047" y1="95.65141" y2="97.38502"/><g><line class="cls-3" x1="127.11656" x2="128.85017" y1="60.5011" y2="61.502"/><line class="cls-3" x1="172.14988" x2="173.88349" y1="86.5011" y2="87.502"/></g><g><line class="cls-3" x1="127.11656" x2="128.85017" y1="87.502" y2="86.5011"/><line class="cls-3" x1="172.14988" x2="173.88349" y1="61.502" y2="60.5011"/></g><g><line class="cls-3" x1="136.99957" x2="138.00047" y1="97.38502" y2="95.65141"/><line class="cls-3" x1="162.99957" x2="164.00047" y1="52.3517" y2="50.61809"/></g></g></g><circle class="cls-10" cx="158.96035" cy="45.26983" r="1"/><g><g><polygon class="cls-1" points="97.51 48.054 88.054 48.054 88.054 50.03 100.946 53.223 100.946 48.905 97.51 48.054"/><polygon class="cls-1" points="88.667 53.96 88.667 58.085 100.946 58.085 100.946 57.001 88.667 53.96"/></g><path class="cls-2" d="M94.5,2.438a19.002,19.002,0,0,0-7.00679,36.66421h14.01358A19.002,19.002,0,0,0,94.5,2.438Z"/><rect class="cls-1" height="4.04404" width="10.21538" x="89.39231" y="44.50984"/><path class="cls-3" d="M75.14677,31.97856A22.00442,22.00442,0,0,1,106.80041,3.265"/><polyline class="cls-3" points="100.946 48.069 100.946 58.4 88.054 58.4 88.054 48.069"/><path class="cls-12" d="M78.69231,21.7a16,16,0,0,1,16-16"/><path class="cls-3" d="M110.36572,6.267a22.01431,22.01431,0,0,1-7.74264,35.7016v6.1007H86.37692V41.97172a22.07774,22.07774,0,0,1-8.391-5.92792"/><line class="cls-12" x1="94.5" x2="94.5" y1="26.58465" y2="42.49234"/><circle class="cls-10" cx="76.32627" cy="34.02815" r="1"/><line class="cls-3" x1="102.62308" x2="86.37692" y1="41.96856" y2="41.96856"/><circle class="cls-3" cx="94.5" cy="21.50772" r="5.07692"/><path class="cls-3" d="M94.5,58.50772v24.5a6.5,6.5,0,0,0,13,0v-19.5a6.5,6.5,0,0,1,6.5-6.5"/></g><circle class="cls-10" cx="114.27341" cy="131.58865" r="1"/></svg>